<mxfile host="app.diagrams.net">
  <diagram name="TradeRsqlVisitor-visitOrNode">
    <mxGraphModel dx="1000" dy="1000" grid="1" gridSize="10" guides="1" tooltips="1" connect="1" arrows="1" fold="1" page="1" pageScale="1" pageWidth="827" pageHeight="1169" math="0" shadow="0">
      <root>
        <mxCell id="0" />
        <mxCell id="1" parent="0" />
        <mxCell id="2" value="visit(OrNode) called" style="ellipse;whiteSpace=wrap;html=1;" vertex="1" parent="1">
          <mxGeometry x="80" y="40" width="160" height="60" as="geometry" />
        </mxCell>
        <mxCell id="3" value="Visit left child node" style="rounded=1;whiteSpace=wrap;html=1;" vertex="1" parent="1">
          <mxGeometry x="40" y="120" width="160" height="60" as="geometry" />
        </mxCell>
        <mxCell id="4" value="Visit right child node" style="rounded=1;whiteSpace=wrap;html=1;" vertex="1" parent="1">
          <mxGeometry x="220" y="120" width="160" height="60" as="geometry" />
        </mxCell>
        <mxCell id="5" value="Combine left and right specifications with OR" style="rounded=1;whiteSpace=wrap;html=1;" vertex="1" parent="1">
          <mxGeometry x="120" y="220" width="220" height="60" as="geometry" />
        </mxCell>
        <mxCell id="6" value="Return combined specification" style="ellipse;whiteSpace=wrap;html=1;" vertex="1" parent="1">
          <mxGeometry x="160" y="320" width="160" height="60" as="geometry" />
        </mxCell>
        <mxCell id="7" style="edgeStyle=orthogonalEdgeStyle;rounded=0;orthogonalLoop=1;jettySize=auto;html=1;" edge="1" parent="1" source="2" target="3">
          <mxGeometry relative="1" as="geometry" />
        </mxCell>
        <mxCell id="8" style="edgeStyle=orthogonalEdgeStyle;rounded=0;orthogonalLoop=1;jettySize=auto;html=1;" edge="1" parent="1" source="2" target="4">
          <mxGeometry relative="1" as="geometry" />
        </mxCell>
        <mxCell id="9" style="edgeStyle=orthogonalEdgeStyle;rounded=0;orthogonalLoop=1;jettySize=auto;html=1;" edge="1" parent="1" source="3" target="5">
          <mxGeometry relative="1" as="geometry" />
        </mxCell>
        <mxCell id="10" style="edgeStyle=orthogonalEdgeStyle;rounded=0;orthogonalLoop=1;jettySize=auto;html=1;" edge="1" parent="1" source="4" target="5">
          <mxGeometry relative="1" as="geometry" />
        </mxCell>
        <mxCell id="11" style="edgeStyle=orthogonalEdgeStyle;rounded=0;orthogonalLoop=1;jettySize=auto;html=1;" edge="1" parent="1" source="5" target="6">
          <mxGeometry relative="1" as="geometry" />
        </mxCell>
      </root>
    </mxGraphModel>
  </diagram>
</mxfile>
